<?xml version="1.0" encoding="UTF-8"?>
<svg version="1.1" xmlns="http://www.w3.org/2000/svg" width="1169" height="1501">
<path d="M0 0 C17.15173406 14.4338439 27.36998226 34.89248117 29.5390625 57.13671875 C29.62747789 59.90500586 29.67669562 62.647133 29.66967303 65.41437197 C29.67164554 66.2134661 29.67361805 67.01256022 29.67565034 67.83586933 C29.68104469 70.51140696 29.67937017 73.1868925 29.6777277 75.86243439 C29.68017595 77.80912513 29.68306006 79.75581536 29.68634048 81.70250487 C29.6941164 87.07026853 29.6956826 92.43801901 29.6962679 97.8057876 C29.69799554 103.63844241 29.70548012 109.47109023 29.71224445 115.30374098 C29.72330909 125.5321033 29.73070869 135.76046356 29.73564339 145.98883057 C29.74095749 156.96376305 29.74843911 167.93869087 29.75857162 178.91362 C29.75952957 179.95330349 29.75952957 179.95330349 29.76050688 181.0139907 C29.76377326 184.54820834 29.76707496 188.08242595 29.77038914 191.61664356 C29.79430694 217.19946906 29.81341984 242.78229634 29.82998848 268.36512756 C29.84641164 293.701586 29.86488881 319.03804158 29.88612175 344.37449646 C29.88678014 345.16124979 29.88743854 345.94800313 29.88811689 346.75859747 C29.89413137 353.94434121 29.90017119 361.13008493 29.90624139 368.31582863 C29.92133115 386.1790555 29.93610325 404.04228263 29.95065975 421.90550995 C29.95165446 423.12570928 29.95165446 423.12570928 29.95266926 424.3705591 C29.98490203 463.94430318 30.01347484 503.5180498 30.04174805 543.09179688 C30.05156193 556.8253581 30.061392 570.55891931 30.07128906 584.29248047 C30.07190286 585.14423333 30.07251666 585.99598619 30.07314906 586.87354975 C30.10170335 626.46690878 30.13285704 666.06026565 30.16468157 705.65362217 C30.16674751 708.2239465 30.16881233 710.79427082 30.17087692 713.36459515 C30.18456083 730.39822054 30.19828955 747.43184589 30.21204827 764.46547122 C30.23942448 798.35836833 30.2665374 832.25126565 30.29346945 866.14416312 C30.29475203 867.75824357 30.2960348 869.37232401 30.29731776 870.98640446 C30.35507441 943.65174175 30.40976811 1016.31708124 30.46313477 1088.98242188 C30.46363451 1089.66285445 30.46413425 1090.34328703 30.46464913 1091.04433878 C30.48964053 1125.07513197 30.51445716 1159.10592528 30.5390625 1193.13671875 C31.2895273 1192.38511479 32.03999211 1191.63351082 32.81319827 1190.85913098 C65.9025234 1157.71977634 98.99372384 1124.58229574 132.09443665 1091.45431519 C132.59591821 1090.95241945 133.09739977 1090.45052372 133.61407774 1089.93341903 C144.51380836 1079.02470874 155.41387371 1068.11633298 166.31428371 1057.20830155 C171.66018693 1051.85865646 177.00601622 1046.5089375 182.35180664 1041.15917969 C182.88376561 1040.62682844 183.41572459 1040.09447719 183.96380353 1039.54599408 C201.19218408 1022.30483972 218.415681 1005.05881652 235.63664001 987.81024958 C253.3400554 970.07850454 271.04841032 952.35170721 288.76295547 934.63108081 C291.26757988 932.12559199 293.77214802 929.62004694 296.2766819 927.11446762 C296.76959012 926.62135713 297.26249834 926.12824664 297.77034318 925.6201934 C305.69034641 917.6966512 313.60515771 909.76794244 321.51801776 901.83726739 C329.48188184 893.85569638 337.45136336 885.87976734 345.42616006 877.90911706 C349.74338922 873.59380685 354.05816442 869.27611688 358.36636925 864.95179558 C362.31616969 860.987328 366.27292957 857.02994351 370.23517225 853.07791232 C371.66197489 851.65237058 373.08627736 850.22432075 374.50770863 848.79342307 C395.5492358 827.62001949 395.5492358 827.62001949 408.7890625 821.76171875 C409.50102783 821.44138672 410.21299316 821.12105469 410.9465332 820.79101562 C431.42264129 811.95156595 454.82356984 810.9936528 475.75488281 818.98242188 C485.09525096 822.78312459 493.00794595 827.36300102 500.5390625 834.13671875 C501.14621094 834.60335937 501.75335937 835.07 502.37890625 835.55078125 C517.81558376 847.52208217 526.00932688 867.92434883 529.12109375 886.63671875 C531.66009957 907.89792634 526.60222725 930.50214076 513.56869915 947.74315523 C508.50480349 953.9284028 503.22378047 959.73820085 497.55717564 965.37308121 C496.26461706 966.6704495 496.26461706 966.6704495 494.94594619 967.99402726 C492.57467039 970.37212531 490.19906617 972.74573613 487.82144157 975.11747615 C485.2276589 977.70705937 482.63970661 980.30245912 480.05097765 982.89709258 C475.52021271 987.43659328 470.98576505 991.97238866 466.44883728 996.50572968 C459.70221973 1003.24702769 452.96133298 1009.99403475 446.22151746 1016.74213243 C433.48349913 1029.49537384 420.73873615 1042.24186065 407.99186952 1054.98625734 C398.14977711 1064.82651593 388.30948455 1074.66857111 378.47045708 1084.51189423 C377.05608783 1085.92686588 375.64171798 1087.34183692 374.22734753 1088.75680737 C372.09596809 1090.88909408 369.96458934 1093.02138149 367.83321448 1095.15367278 C348.02338371 1114.97193019 328.21151045 1134.7881439 308.39537907 1154.60010147 C307.6486981 1155.34662606 306.90201714 1156.09315065 306.13270948 1156.86229719 C302.34834861 1160.6458523 298.56396774 1164.42938739 294.77957887 1168.2129145 C294.02800443 1168.96431785 293.27642999 1169.7157212 292.50208057 1170.48989435 C290.98221656 1172.0094117 289.46235162 1173.52892812 287.94248574 1175.0484436 C264.28400012 1198.70156989 240.63217334 1222.36133639 216.9855957 1246.02636719 C190.41104533 1272.62163139 163.83150896 1299.21189804 137.24458975 1325.79479766 C134.41020629 1328.62878578 131.57583972 1331.46279079 128.74148369 1334.29680634 C127.69466157 1335.34349235 127.69466157 1335.34349235 126.62669154 1336.41132354 C116.09133201 1346.94551707 105.55988551 1357.48361197 95.03041267 1368.02368927 C83.0582729 1380.00787423 71.08091008 1391.98681046 59.09654314 1403.95876864 C52.39071569 1410.65796341 45.68905763 1417.36126615 38.99333723 1424.07056306 C34.51925569 1428.5528841 30.03973438 1433.02971932 25.55577063 1437.50215439 C23.00202707 1440.04963682 20.45068214 1442.59939798 17.90592671 1445.15586165 C15.16098706 1447.91331394 12.40447421 1450.65901065 9.6467905 1453.40372086 C8.86383447 1454.19398623 8.08087845 1454.98425161 7.27419648 1455.79846442 C-9.81125304 1472.71765306 -30.53000411 1481.41810902 -54.4609375 1481.63671875 C-87.73404059 1481.33276805 -108.10852828 1463.96840282 -130.58649758 1441.40276269 C-133.17781235 1438.80468988 -135.77786055 1436.21538004 -138.37675887 1433.62489724 C-142.92264231 1429.09134585 -147.46296502 1424.55228544 -151.99961281 1420.00949287 C-158.74595483 1413.25403766 -165.5008656 1406.50719876 -172.25742868 1399.76196824 C-184.32645653 1387.71258518 -196.38683812 1375.65457737 -208.44343974 1363.59276198 C-218.99480605 1353.03683518 -229.54875167 1342.48349621 -240.10529518 1331.93274689 C-241.52234993 1330.51644901 -242.93940424 1329.10015068 -244.3564581 1327.68385191 C-246.49193027 1325.54952496 -248.62740477 1323.41520034 -250.7628864 1321.28088285 C-270.61067997 1301.44379086 -290.4554874 1281.60371555 -310.29397869 1261.7573204 C-311.04146969 1261.00953224 -311.78896068 1260.26174407 -312.55910292 1259.49129565 C-318.62891314 1253.4190366 -324.69864194 1247.34669616 -330.76836473 1241.27434971 C-354.44607998 1217.58653112 -378.13300887 1193.9079616 -401.82739258 1170.23681641 C-428.46016019 1143.63012705 -455.08629846 1117.01682969 -481.7024768 1090.39354444 C-484.54097562 1087.55432957 -487.37949527 1084.71513553 -490.21802711 1081.87595367 C-490.9169196 1081.17689138 -491.61581208 1080.47782909 -492.33588312 1079.75758309 C-502.88024665 1069.21091779 -513.42973611 1058.66939826 -523.98181725 1048.13045502 C-535.98291153 1036.14427627 -547.97694129 1024.15107945 -559.96166762 1012.14853373 C-566.66555052 1005.4350935 -573.37486678 998.72719499 -580.09221185 992.02722419 C-584.58293891 987.54700015 -589.06630675 983.05949929 -593.54385323 978.56610277 C-596.09226559 976.00907403 -598.64364119 973.45522059 -601.20403799 970.91018733 C-619.56001985 952.6565823 -637.30296328 932.59035756 -638.4609375 905.13671875 C-638.5125 904.06292969 -638.5640625 902.98914063 -638.6171875 901.8828125 C-639.22653291 877.53438544 -630.71147304 855.4359008 -613.96875 837.65771484 C-598.17763375 821.7285286 -576.63481298 813.88110105 -554.4609375 813.63671875 C-533.90872622 813.8632284 -514.88449037 820.31291274 -499.4609375 834.13671875 C-498.76013427 834.75061634 -498.05933105 835.36451392 -497.33729136 835.99701446 C-489.57582701 842.86262075 -482.28741897 850.17351845 -474.97103882 857.50636292 C-473.51894128 858.95802378 -472.06662377 860.40946463 -470.61410677 861.86070579 C-466.64390416 865.82868224 -462.67680978 869.79975332 -458.71023488 873.77135575 C-454.42452474 878.06139725 -450.13591169 882.34853511 -445.84765625 886.6360321 C-438.42515653 894.05800829 -431.00446748 901.48179125 -423.58506393 908.90686226 C-415.80735088 916.69050119 -408.02859669 924.47309723 -400.24846268 932.25431633 C-399.7639287 932.73891905 -399.27939472 933.22352176 -398.7801779 933.72280941 C-396.31926646 936.1840592 -393.85833654 938.6452905 -391.3973995 941.10651468 C-373.98640101 958.51961115 -356.57771994 975.93502276 -339.17041016 993.35180664 C-322.26403557 1010.26737203 -305.35660614 1027.18188195 -288.44775391 1044.0949707 C-287.9261496 1044.61670654 -287.40454529 1045.13844237 -286.86713479 1045.67598838 C-281.62876049 1050.91568125 -276.39036481 1056.15535274 -271.15195347 1061.39500857 C-260.48160036 1072.06789759 -249.81138995 1082.74092925 -239.14126587 1093.41404724 C-238.40544353 1094.15007551 -238.40544353 1094.15007551 -237.6547561 1094.90097304 C-204.92109184 1127.64383119 -172.19076394 1160.39002435 -139.4609375 1193.13671875 C-139.46053732 1192.15302482 -139.46013713 1191.16933089 -139.45972482 1190.15582806 C-139.44599957 1156.47367678 -139.4316094 1122.79152579 -139.41674805 1089.109375 C-139.41644871 1088.43081224 -139.41614937 1087.75224948 -139.41584096 1087.05312422 C-139.383745 1014.33741453 -139.3472733 941.62170859 -139.30195618 868.90600586 C-139.30095055 867.29059885 -139.29994493 865.67519185 -139.29893931 864.05978484 C-139.27781727 830.15117038 -139.25608 796.24255633 -139.23363212 762.33394272 C-139.22235629 745.30025252 -139.21119867 728.26656225 -139.20015281 711.2328719 C-139.19848591 708.66342113 -139.19681564 706.09397037 -139.19514522 703.52451961 C-139.16945617 663.96361362 -139.14630062 624.40270816 -139.13049316 584.84179688 C-139.12998337 583.56612817 -139.12998337 583.56612817 -139.12946327 582.26468838 C-139.12399916 568.55318555 -139.11874787 554.84168264 -139.11352483 541.13017971 C-139.09847567 501.63165937 -139.08184994 462.13314252 -139.05481434 422.6346283 C-139.05398135 421.4159622 -139.05398135 421.4159622 -139.05313153 420.17267658 C-139.04091177 402.33654103 -139.02788281 384.50040616 -139.01408793 366.66427176 C-139.00855139 359.48735271 -139.0031313 352.31043357 -138.99775124 345.1335144 C-138.99715961 344.34803729 -138.99656798 343.56256017 -138.99595842 342.75328072 C-138.97696142 317.45506315 -138.96744041 292.15685293 -138.96290155 266.85862896 C-138.95828502 241.36968542 -138.94435066 215.88076529 -138.91751116 190.39183492 C-138.9138023 186.86738386 -138.91019999 183.34293269 -138.90666199 179.81848145 C-138.9059646 179.12760478 -138.90526721 178.43672811 -138.90454869 177.72491579 C-138.89445018 167.46409604 -138.89270156 157.20329798 -138.89592934 146.94247437 C-138.89947252 135.52263 -138.89324109 124.10284764 -138.87361339 112.6830185 C-138.86404234 106.9338229 -138.85918591 101.18473066 -138.86754187 95.43553078 C-138.87505827 90.20005006 -138.86869495 84.96477249 -138.85149683 79.72931629 C-138.84772052 77.85206165 -138.84889658 75.97478841 -138.85578149 74.09754258 C-138.94687678 47.12522997 -132.37220757 23.52714147 -113.1171875 3.7265625 C-103.72363043 -5.1637683 -92.66277204 -11.63587401 -80.4609375 -15.86328125 C-79.56117188 -16.18296875 -78.66140625 -16.50265625 -77.734375 -16.83203125 C-50.552148 -24.74491674 -21.7013072 -17.22650936 0 0 Z " fill="#ffffff" transform="translate(639.4609375,19.86328125)"/>
</svg>
